<svg xmlns="http://www.w3.org/2000/svg" xmlns:xlink="http://www.w3.org/1999/xlink" viewBox="0,0,256,256" width="48px" height="48px"><g transform="translate(87.04,87.04) scale(0.32,0.32)"><g fill="none" fill-rule="nonzero" stroke="none" stroke-width="1" stroke-linecap="butt" stroke-linejoin="miter" stroke-miterlimit="10" stroke-dasharray="" stroke-dashoffset="0" font-family="none" font-weight="none" font-size="none" text-anchor="none" style="mix-blend-mode: normal"><g transform="translate(-263.46667,-33.06667) scale(5.33333,5.33333)"><path d="M42,35h-36l18,-31z" fill-opacity="0" fill="#f8f8f8"></path><path d="M42,36h-36c-0.357,0 -0.688,-0.191 -0.866,-0.501c-0.179,-0.31 -0.178,-0.692 0.001,-1.001l18,-31c0.359,-0.617 1.371,-0.617 1.73,0l18,31c0.179,0.309 0.18,0.691 0.001,1.001c-0.178,0.31 -0.509,0.501 -0.866,0.501zM7.737,34h32.525l-16.262,-28.008z" fill="#5457e0"></path><rect x="23" y="24" width="2" height="21" fill="#5457e0"></rect><rect x="41" y="14" width="2" height="21" fill="#5457e0"></rect><path d="M7,35h-2v-21.588l19,-10.556l18.485,10.27l-0.97,1.748l-17.515,-9.73l-17,9.444z" fill="#5457e0"></path><path d="M24,25.144l-18.485,-10.27l0.97,-1.748l17.515,9.73l17.515,-9.73l0.97,1.748z" fill="#5457e0"></path><path d="M24,46.144l-18.485,-10.27l0.97,-1.748l17.515,9.73l17.515,-9.73l0.97,1.748z" fill="#5457e0"></path><circle cx="24" cy="4.5" r="2.5" fill="#5457e0"></circle><circle cx="41.5" cy="34.5" r="2.5" fill="#5457e0"></circle><circle cx="6.5" cy="34.5" r="2.5" fill="#5457e0"></circle><circle cx="24" cy="24" r="2.5" fill="#5457e0"></circle><circle cx="41.5" cy="14.5" r="2.5" fill="#5457e0"></circle><circle cx="6.5" cy="14.5" r="2.5" fill="#5457e0"></circle><circle cx="24" cy="44.5" r="2.5" fill="#5457e0"></circle></g></g><g fill="#000000" fill-rule="nonzero" stroke="none" stroke-width="1" stroke-linecap="butt" stroke-linejoin="miter" stroke-miterlimit="10" stroke-dasharray="" stroke-dashoffset="0" font-family="none" font-weight="none" font-size="none" text-anchor="none" style="mix-blend-mode: normal"><g><path d="M42.76,57.2l11.2,48.56l9.19,-48.56h14.01l-15.14,68.25h-14.15l-11.11,-45.66l-11.11,45.66h-14.16l-15.14,-68.25h14.02l9.23,48.47l11.25,-48.47zM98.16,74.73v50.72h-13.59v-50.72zM83.77,61.61v0c0,-2.03333 0.68,-3.70667 2.04,-5.02c1.36,-1.31333 3.21333,-1.97 5.56,-1.97v0c2.31333,0 4.15667,0.65667 5.53,1.97c1.37333,1.31333 2.06,2.98667 2.06,5.02v0c0,2.06 -0.69667,3.74667 -2.09,5.06c-1.38667,1.31333 -3.22,1.97 -5.5,1.97c-2.28667,0 -4.12333,-0.65667 -5.51,-1.97c-1.39333,-1.31333 -2.09,-3 -2.09,-5.06zM140.77,125.45l-13.03,-20.34l-4.87,4.87v15.47h-13.55v-72h13.55v39.89l2.62,-3.37l12.99,-15.24h16.26l-18.33,21.14l19.93,29.58zM174.9,74.73v50.72h-13.6v-50.72zM160.51,61.61v0c0,-2.03333 0.68,-3.70667 2.04,-5.02c1.36,-1.31333 3.21,-1.97 5.55,-1.97v0c2.31333,0 4.15667,0.65667 5.53,1.97c1.37333,1.31333 2.06,2.98667 2.06,5.02v0c0,2.06 -0.69333,3.74667 -2.08,5.06c-1.39333,1.31333 -3.23,1.97 -5.51,1.97c-2.28,0 -4.11667,-0.65667 -5.51,-1.97c-1.38667,-1.31333 -2.08,-3 -2.08,-5.06zM237.24,101.4h-12.33v24.05h-14.06v-68.25h26.63c5.12,0 9.62667,0.93667 13.52,2.81c3.89333,1.88 6.88667,4.54333 8.98,7.99c2.09333,3.45333 3.14,7.38333 3.14,11.79v0c0,6.69333 -2.29,11.96667 -6.87,15.82c-4.58,3.86 -10.91667,5.79 -19.01,5.79zM224.91,68.59v21.42h12.57c3.71333,0 6.54667,-0.87333 8.5,-2.62c1.95333,-1.75333 2.93,-4.25333 2.93,-7.5v0c0,-3.34667 -0.98333,-6.05 -2.95,-8.11c-1.96667,-2.06667 -4.68667,-3.13 -8.16,-3.19v0zM300.57,74.4l-0.19,13.03c-1.84,-0.24667 -3.46333,-0.37 -4.87,-0.37v0c-5.12667,0 -8.48667,1.73333 -10.08,5.2v0v33.19h-13.55v-50.72h12.8l0.37,6.05c2.72,-4.66 6.48667,-6.99 11.3,-6.99v0c1.5,0 2.90667,0.20333 4.22,0.61zM303.1,100.23v-0.61c0,-5.02667 0.97,-9.51 2.91,-13.45c1.93333,-3.94 4.72,-6.98667 8.36,-9.14c3.64667,-2.16 7.87333,-3.24 12.68,-3.24v0c6.84667,0 12.43333,2.09667 16.76,6.29c4.32667,4.18667 6.74,9.87333 7.24,17.06v0l0.1,3.47c0,7.78 -2.17333,14.02 -6.52,18.72c-4.34,4.70667 -10.16667,7.06 -17.48,7.06c-7.31333,0 -13.15,-2.34333 -17.51,-7.03c-4.36,-4.68667 -6.54,-11.06333 -6.54,-19.13zM316.65,100.61v0c0,4.81333 0.90667,8.49333 2.72,11.04c1.81333,2.54667 4.40667,3.82 7.78,3.82v0c3.28,0 5.84333,-1.26 7.69,-3.78c1.84,-2.51333 2.76,-6.53667 2.76,-12.07v0c0,-4.72 -0.92,-8.37667 -2.76,-10.97c-1.84667,-2.59333 -4.44333,-3.89 -7.79,-3.89v0c-3.30667,0 -5.86667,1.29 -7.68,3.87c-1.81333,2.58 -2.72,6.57333 -2.72,11.98zM359.49,74.73h12.7l0.43,5.67c3.59333,-4.40667 8.45,-6.61 14.57,-6.61v0c6.53333,0 11.02,2.58 13.46,7.74v0c3.56,-5.16 8.63667,-7.74 15.23,-7.74v0c5.5,0 9.59333,1.60333 12.28,4.81c2.68667,3.2 4.03,8.02 4.03,14.46v0v32.39h-13.59v-32.34c0,-2.88 -0.56333,-4.98333 -1.69,-6.31c-1.12,-1.32667 -3.10333,-1.99 -5.95,-1.99v0c-4.06,0 -6.87333,1.93667 -8.44,5.81v0l0.05,34.83h-13.55v-32.3c0,-2.93333 -0.57667,-5.05667 -1.73,-6.37c-1.16,-1.31333 -3.13,-1.97 -5.91,-1.97v0c-3.84,0 -6.62,1.59333 -8.34,4.78v0v35.86h-13.55zM488.26,99.86v0.7c0,7.81333 -1.77333,14.07 -5.32,18.77c-3.54667,4.70667 -8.33667,7.06 -14.37,7.06v0c-5.12667,0 -9.26667,-1.78333 -12.42,-5.35v0v23.91h-13.55v-70.22h12.56l0.47,4.97c3.28,-3.94 7.56333,-5.91 12.85,-5.91v0c6.24667,0 11.10333,2.31333 14.57,6.94c3.47333,4.62667 5.21,11.00333 5.21,19.13zM474.71,99.58v0c0,-4.72 -0.83667,-8.36333 -2.51,-10.93c-1.67333,-2.56 -4.10333,-3.84 -7.29,-3.84v0c-4.24667,0 -7.16667,1.62333 -8.76,4.87v0v20.77c1.65333,3.34667 4.60667,5.02 8.86,5.02v0c6.46667,0 9.7,-5.29667 9.7,-15.89zM499.32,62.26h13.55v12.47h8.67v9.94h-8.67v25.31c0,1.87333 0.35667,3.21667 1.07,4.03c0.72,0.81333 2.09667,1.22 4.13,1.22v0c1.5,0 2.82667,-0.11 3.98,-0.33v0v10.27c-2.65333,0.81333 -5.38667,1.22 -8.2,1.22v0c-9.5,0 -14.34333,-4.79667 -14.53,-14.39v0v-27.33h-7.41v-9.94h7.41z"></path></g></g></g></svg>