<svg xmlns="http://www.w3.org/2000/svg" xmlns:xlink="http://www.w3.org/1999/xlink" viewBox="0,0,256,256" width="48px" height="48px"><g fill="none" fill-rule="nonzero" stroke="none" stroke-width="1" stroke-linecap="butt" stroke-linejoin="miter" stroke-miterlimit="10" stroke-dasharray="" stroke-dashoffset="0" font-family="none" font-weight="none" font-size="none" text-anchor="none" style="mix-blend-mode: normal"><g transform="scale(5.33333,5.33333)"><path d="M42,35h-36l18,-31z" fill-opacity="0" fill="#f8f8f8"></path><path d="M42,36h-36c-0.357,0 -0.688,-0.191 -0.866,-0.501c-0.179,-0.31 -0.178,-0.692 0.001,-1.001l18,-31c0.359,-0.617 1.371,-0.617 1.73,0l18,31c0.179,0.309 0.18,0.691 0.001,1.001c-0.178,0.31 -0.509,0.501 -0.866,0.501zM7.737,34h32.525l-16.262,-28.008z" fill="#5457e0"></path><rect x="23" y="24" width="2" height="21" fill="#5457e0"></rect><rect x="41" y="14" width="2" height="21" fill="#5457e0"></rect><path d="M7,35h-2v-21.588l19,-10.556l18.485,10.27l-0.97,1.748l-17.515,-9.73l-17,9.444z" fill="#5457e0"></path><path d="M24,25.144l-18.485,-10.27l0.97,-1.748l17.515,9.73l17.515,-9.73l0.97,1.748z" fill="#5457e0"></path><path d="M24,46.144l-18.485,-10.27l0.97,-1.748l17.515,9.73l17.515,-9.73l0.97,1.748z" fill="#5457e0"></path><circle cx="24" cy="4.5" r="2.5" fill="#5457e0"></circle><circle cx="41.5" cy="34.5" r="2.5" fill="#5457e0"></circle><circle cx="6.5" cy="34.5" r="2.5" fill="#5457e0"></circle><circle cx="24" cy="24" r="2.5" fill="#5457e0"></circle><circle cx="41.5" cy="14.5" r="2.5" fill="#5457e0"></circle><circle cx="6.5" cy="14.5" r="2.5" fill="#5457e0"></circle><circle cx="24" cy="44.5" r="2.5" fill="#5457e0"></circle></g></g></svg>